<?xml version="1.0" encoding="UTF-8"?>
<svg version="1.1" xmlns="http://www.w3.org/2000/svg" width="911" height="204">
<path d="M0 0 C1.15478516 2.10693359 1.15478516 2.10693359 2 4 C-2.14014073 8.31312182 -6.30272423 12.602772 -10.48779297 16.87231445 C-11.90826669 18.32799982 -13.32239584 19.7899044 -14.72998047 21.25805664 C-16.754147 23.36709837 -18.8000569 25.45274151 -20.8515625 27.53515625 C-21.47680817 28.19653091 -22.10205383 28.85790558 -22.74624634 29.5393219 C-24.43625906 31.23082343 -25.98339071 32.715 -28 34 C-31.30029297 33.94897461 -31.30029297 33.94897461 -34 33 C-34.7734375 32.7628125 -35.546875 32.525625 -36.34375 32.28125 C-37.78125 31.76041667 -39.21875 31.23958333 -40.65625 30.71875 C-55.23640478 26.24750253 -70.63950799 28.90398439 -83.94140625 35.71875 C-85.95047093 36.96917356 -87.36502632 38.3071022 -89 40 C-86.29562927 43.1582023 -83.53003435 46.24528561 -80.69921875 49.28955078 C-79.75101709 50.32688595 -78.81970771 51.37998276 -77.90820312 52.44970703 C-71.87601414 59.49833315 -64.89336217 64.56879083 -55.47943115 65.72041321 C-44.37156333 65.46953259 -36.75414007 55.86902871 -29.53631592 48.42712402 C-26.43888995 45.18214722 -23.39695979 41.88824139 -20.36395264 38.58312988 C-15.46796228 33.27559995 -10.46005579 28.0725745 -5.4707489 22.85301018 C-3.73872811 21.02499165 -2.0304679 19.17714176 -0.32580566 17.32362366 C0.72077707 16.20460358 1.76752104 15.08573426 2.81445312 13.96704102 C3.28294174 13.44601303 3.75143036 12.92498505 4.2341156 12.38816833 C5.56555176 10.98121643 5.56555176 10.98121643 8 9 C13.33898172 9.13574767 16.79912224 14.36970401 20.2578125 17.98046875 C37.32368949 36.45005781 45.40932306 60.77344871 45.375 85.5625 C45.37445618 86.22541046 45.37391235 86.88832092 45.37335205 87.57131958 C45.3331787 98.23220207 44.46375774 107.89826692 41 118 C40.78037598 118.64420898 40.56075195 119.28841797 40.33447266 119.95214844 C30.84014297 147.16519531 11.73658095 167.54607134 -14.02246094 180.09960938 C-27.44606612 186.21149282 -40.90580145 188.39529375 -55.5625 188.375 C-56.22541046 188.37445618 -56.88832092 188.37391235 -57.57131958 188.37335205 C-68.23861662 188.33315453 -77.88947715 187.44921888 -88 184 C-89.87558594 183.38125 -89.87558594 183.38125 -91.7890625 182.75 C-105.01562331 178.08471191 -116.63403952 170.57528223 -126.9375 161.125 C-127.53506104 160.5777124 -128.13262207 160.0304248 -128.74829102 159.46655273 C-133.67605687 154.74826239 -133.67605687 154.74826239 -134 151 C-132.99479675 149.38006592 -132.99479675 149.38006592 -131.39135742 147.79199219 C-130.49999336 146.89151154 -130.49999336 146.89151154 -129.59062195 145.97283936 C-128.60797112 145.019487 -128.60797112 145.019487 -127.60546875 144.046875 C-126.9429158 143.38665344 -126.28036285 142.72643188 -125.59773254 142.04620361 C-124.19363123 140.65185379 -122.78350641 139.26354764 -121.36791992 137.88085938 C-119.19451219 135.7568528 -117.04033831 133.6147561 -114.88867188 131.46875 C-113.52452678 130.11869013 -112.15932724 128.76969471 -110.79296875 127.421875 C-110.14394089 126.77820984 -109.49491302 126.13454468 -108.82621765 125.47137451 C-108.22251846 124.88366272 -107.61881927 124.29595093 -106.99682617 123.69042969 C-106.19954353 122.90910675 -106.19954353 122.90910675 -105.38615417 122.11199951 C-104 121 -104 121 -102 121 C-100.58984375 122.50390625 -100.58984375 122.50390625 -98.9375 124.5625 C-92.52786142 132.05806909 -85.04030073 137.1377119 -76 141 C-75.28972656 141.32097656 -74.57945313 141.64195312 -73.84765625 141.97265625 C-63.0330309 146.05902611 -47.66746483 145.90513711 -37.1328125 141.19921875 C-31.76521805 138.18117572 -28.11326371 134.98758051 -26 129 C-25.28438783 122.66172076 -26.4721614 118.32125488 -30 113 C-30.97178119 111.97255593 -31.96504762 110.96378087 -33 110 C-36.46629835 111.48653506 -38.69022036 113.45722351 -41.328125 116.1328125 C-42.12734375 116.93847656 -42.9265625 117.74414062 -43.75 118.57421875 C-44.575 119.41597656 -45.4 120.25773438 -46.25 121.125 C-47.09046875 121.97449219 -47.9309375 122.82398438 -48.796875 123.69921875 C-50.86915683 125.79504923 -52.93662393 127.89540713 -55 130 C-57.97001602 128.67647869 -59.91299372 127.28857426 -62.09008789 124.88305664 C-62.66912369 124.25222672 -63.24815948 123.62139679 -63.84474182 122.97145081 C-64.46445358 122.2912236 -65.08416534 121.6109964 -65.72265625 120.91015625 C-67.07909814 119.46985259 -68.43790474 118.03177302 -69.79882812 116.59570312 C-71.92676476 114.34539002 -74.03968397 112.0877863 -76.11450195 109.78833008 C-85.26505281 99.68750017 -92.05091377 94.11710332 -105.95092773 93.28686523 C-106.65321503 93.25406464 -107.35550232 93.22126404 -108.07907104 93.18746948 C-110.61859614 92.93962926 -112.72190741 92.12124647 -115 91 C-114.37650642 93.52121432 -113.75124639 96.04196931 -113.125 98.5625 C-112.95097656 99.26697266 -112.77695313 99.97144531 -112.59765625 100.69726562 C-112.42363281 101.39658203 -112.24960938 102.09589844 -112.0703125 102.81640625 C-111.83465576 103.76688843 -111.83465576 103.76688843 -111.59423828 104.73657227 C-110.77997239 107.83807558 -109.88092369 110.91676709 -109 114 C-119.23 124.23 -129.46 134.46 -140 145 C-143.62525276 141.37474724 -145.72826815 138.24221322 -147.9375 133.75 C-148.28377441 133.04907227 -148.63004883 132.34814453 -148.98681641 131.62597656 C-160.7251284 107.12149852 -162.91074227 78.45942198 -153.94848633 52.68579102 C-143.56905932 24.57775655 -123.3150352 4.15427653 -96.42919922 -8.36865234 C-66.29375903 -21.62824603 -27.33001915 -18.88099115 0 0 Z M-1.5078125 75.3125 C-2.04148438 75.869375 -2.57515625 76.42625 -3.125 77 C-3.66382813 77.556875 -4.20265625 78.11375 -4.7578125 78.6875 C-5.16773438 79.120625 -5.57765625 79.55375 -6 80 C-4.89112199 83.32663403 -4.28198895 83.78913459 -1.5 85.6875 C-0.8709375 86.12449219 -0.241875 86.56148437 0.40625 87.01171875 C1.82909473 88.08783331 1.82909473 88.08783331 3 88 C3.14975239 80.94348748 3.14975239 80.94348748 2 74 C-0.08175012 73.78114478 -0.08175012 73.78114478 -1.5078125 75.3125 Z " fill="#2172AC" transform="translate(159,16)"/>
<path d="M0 0 C7.12497742 2.66287035 11.46570393 7.28175466 16.28125 12.984375 C17.329215 14.21335214 18.4065319 15.41897676 19.53125 16.578125 C29.67398147 27.26036346 33.52611671 41.11084079 33.32421875 55.4921875 C32.8355833 60.77886984 31.18218489 65.19919324 29 70 C28.608125 71.03125 28.21625 72.0625 27.8125 73.125 C16.41531637 91.20329127 -7.44388172 101.48329478 -27.5390625 106.109375 C-34.1800483 107.37989002 -40.81993045 107.3843358 -47.5625 107.375 C-48.22541046 107.37445618 -48.88832092 107.37391235 -49.57131958 107.37335205 C-60.23861662 107.33315453 -69.88947715 106.44921888 -80 103 C-81.25039062 102.5875 -82.50078125 102.175 -83.7890625 101.75 C-97.01562331 97.08471191 -108.63403952 89.57528223 -118.9375 80.125 C-119.83384155 79.3040686 -119.83384155 79.3040686 -120.74829102 78.46655273 C-125.67605687 73.74826239 -125.67605687 73.74826239 -126 70 C-124.99479675 68.38006592 -124.99479675 68.38006592 -123.39135742 66.79199219 C-122.79711472 66.19167175 -122.20287201 65.59135132 -121.59062195 64.97283936 C-120.93552139 64.33727112 -120.28042084 63.70170288 -119.60546875 63.046875 C-118.9429158 62.38665344 -118.28036285 61.72643188 -117.59773254 61.04620361 C-116.19363123 59.65185379 -114.78350641 58.26354764 -113.36791992 56.88085938 C-111.19451219 54.7568528 -109.04033831 52.6147561 -106.88867188 50.46875 C-105.52452678 49.11869013 -104.15932724 47.76969471 -102.79296875 46.421875 C-102.14394089 45.77820984 -101.49491302 45.13454468 -100.82621765 44.47137451 C-100.22251846 43.88366272 -99.61881927 43.29595093 -98.99682617 42.69042969 C-98.19954353 41.90910675 -98.19954353 41.90910675 -97.38615417 41.11199951 C-96 40 -96 40 -94 40 C-92.58984375 41.50390625 -92.58984375 41.50390625 -90.9375 43.5625 C-84.52786142 51.05806909 -77.04030073 56.1377119 -68 60 C-67.28972656 60.32097656 -66.57945313 60.64195312 -65.84765625 60.97265625 C-55.0330309 65.05902611 -39.66746483 64.90513711 -29.1328125 60.19921875 C-23.76521805 57.18117572 -20.11326371 53.98758051 -18 48 C-17.27911993 41.61506227 -18.48521384 37.36717346 -22 32 C-24.08136655 29.57927788 -24.08136655 29.57927788 -26 28 C-24.39626852 23.99482604 -21.57886014 21.3228902 -18.5546875 18.359375 C-18.02481232 17.83232971 -17.49493713 17.30528442 -16.94900513 16.76226807 C-15.26232175 15.08674325 -13.56880436 13.41832278 -11.875 11.75 C-10.72740612 10.61244149 -9.58026539 9.47442564 -8.43359375 8.3359375 C-5.62761863 5.55196535 -2.81549536 2.7743424 0 0 Z " fill="#FDCD17" transform="translate(151,97)"/>
<path d="M0 0 C26 0 26 0 31.6796875 5.07421875 C33.421875 8.28710938 33.421875 8.28710938 34.875 11.6875 C35.99704975 13.87908347 37.11943396 16.07049575 38.2421875 18.26171875 C38.6841748 19.24100342 39.12616211 20.22028809 39.58154297 21.22924805 C41.0826478 24.16144061 42.86630841 26.50005223 45 29 C45.60473145 28.00202393 45.60473145 28.00202393 46.22167969 26.98388672 C48.06309609 23.94676599 49.90652937 20.91087426 51.75 17.875 C52.38421875 16.82828125 53.0184375 15.7815625 53.671875 14.703125 C54.290625 13.68476562 54.909375 12.66640625 55.546875 11.6171875 C56.39523926 10.21895752 56.39523926 10.21895752 57.26074219 8.79248047 C59.11108657 5.821644 61.05857755 2.91213367 63 0 C71.58 0 80.16 0 89 0 C89 27.72 89 55.44 89 84 C81.08 84 73.16 84 65 84 C64.67 69.81 64.34 55.62 64 41 C58.24354464 49.83240091 58.24354464 49.83240091 52.51269531 58.68139648 C51.79178711 59.77524658 51.07087891 60.86909668 50.328125 61.99609375 C49.95993652 62.5739563 49.59174805 63.15181885 49.21240234 63.74719238 C46.87980747 67.2499466 46.28619612 67.92845097 42 69 C36.06 60.09 30.12 51.18 24 42 C23.67 55.86 23.34 69.72 23 84 C15.41 84 7.82 84 0 84 C0 56.28 0 28.56 0 0 Z " fill="#2072AD" transform="translate(239,55)"/>
<path d="M0 0 C1.15478516 2.10693359 1.15478516 2.10693359 2 4 C-2.14014073 8.31312182 -6.30272423 12.602772 -10.48779297 16.87231445 C-11.90826669 18.32799982 -13.32239584 19.7899044 -14.72998047 21.25805664 C-16.754147 23.36709837 -18.8000569 25.45274151 -20.8515625 27.53515625 C-21.47680817 28.19653091 -22.10205383 28.85790558 -22.74624634 29.5393219 C-24.43625906 31.23082343 -25.98339071 32.715 -28 34 C-31.30029297 33.94897461 -31.30029297 33.94897461 -34 33 C-34.7734375 32.7628125 -35.546875 32.525625 -36.34375 32.28125 C-37.78125 31.76041667 -39.21875 31.23958333 -40.65625 30.71875 C-55.11619178 26.28436785 -70.60189943 28.77968295 -83.74609375 35.71875 C-86.18832952 37.10705733 -88.59316194 38.55136395 -91 40 C-95.42183635 35.62872972 -99.83592642 31.24975043 -104.24462891 26.86523438 C-105.74642039 25.37352203 -107.24999903 23.88360672 -108.75537109 22.39550781 C-110.91451966 20.26052352 -113.06723153 18.11923229 -115.21875 15.9765625 C-115.89683716 15.30879791 -116.57492432 14.64103333 -117.27355957 13.95303345 C-117.89420288 13.3325412 -118.51484619 12.71204895 -119.15429688 12.07275391 C-119.70500854 11.52648346 -120.25572021 10.98021301 -120.82312012 10.41738892 C-122 9 -122 9 -122 7 C-87.65991577 -19.89223482 -36.9764459 -25.5452418 0 0 Z " fill="#FDCD17" transform="translate(159,16)"/>
<path d="M0 0 C6.63381735 5.43665495 10.78118029 11.9633378 12.609375 20.37109375 C13.69577522 32.79201989 13.49339656 44.67628673 5.359375 54.74609375 C0.23828496 60.10947192 -5.41405939 63.96925926 -12.90625 64.57421875 C-21.2473564 64.71720915 -26.57360913 63.48385565 -33.390625 58.37109375 C-33.720625 65.96109375 -34.050625 73.55109375 -34.390625 81.37109375 C-42.310625 81.37109375 -50.230625 81.37109375 -58.390625 81.37109375 C-58.390625 53.65109375 -58.390625 25.93109375 -58.390625 -2.62890625 C-50.470625 -2.62890625 -42.550625 -2.62890625 -34.390625 -2.62890625 C-34.060625 -0.97890625 -33.730625 0.67109375 -33.390625 2.37109375 C-32.78734375 1.94957031 -32.1840625 1.52804688 -31.5625 1.09375 C-30.76328125 0.54589844 -29.9640625 -0.00195312 -29.140625 -0.56640625 C-28.35171875 -1.11167969 -27.5628125 -1.65695313 -26.75 -2.21875 C-18.54565085 -7.12234279 -7.59240209 -5.17325437 0 0 Z M-32.390625 20.37109375 C-35.04354861 24.50928093 -35.72783209 28.22855286 -34.890625 33.05859375 C-33.73009785 37.25825137 -31.8231096 39.62510607 -28.390625 42.37109375 C-25.28109121 43.92586065 -22.82795739 43.65753812 -19.390625 43.37109375 C-15.3961107 41.52747176 -13.19334491 39.64483356 -11.390625 35.68359375 C-9.91029005 30.96062033 -10.46209713 26.89108095 -12.390625 22.37109375 C-15.6054685 18.51328155 -17.62230113 16.54112489 -22.640625 16.05859375 C-27.18656236 16.43742186 -29.02136401 17.30812921 -32.390625 20.37109375 Z " fill="#2072AD" transform="translate(657.390625,76.62890625)"/>
<path d="M0 0 C7.16301204 5.16794493 12.11111715 11.93113991 14.390625 20.4921875 C15.41644182 29.49632601 15.4803462 38.72283115 10.390625 46.4921875 C9.96652344 47.18570313 9.54242187 47.87921875 9.10546875 48.59375 C4.06663745 56.08883611 -3.10411224 60.74917173 -11.80859375 63.0234375 C-23.04177924 64.90346854 -33.51972435 63.79273335 -43.296875 57.8671875 C-50.07048168 53.02375901 -56.13600153 45.87199912 -57.609375 37.4921875 C-58.39158699 28.21319778 -58.3017488 19.81188974 -53.609375 11.4921875 C-53.25875 10.84894531 -52.908125 10.20570312 -52.546875 9.54296875 C-47.81185837 1.96365394 -38.81956891 -3.04780002 -30.25 -5.0625 C-19.72185788 -6.83795592 -9.30345642 -5.37594937 0 0 Z M-30.609375 18.4921875 C-33.62000595 22.22952248 -34.44504506 25.72661937 -34.609375 30.4921875 C-33.11562211 35.13068331 -31.41067739 38.40362931 -27.609375 41.4921875 C-22.72962075 43.11877225 -19.06552822 43.16425822 -14.359375 40.9921875 C-10.86425939 37.81480968 -9.34050883 35.15830004 -8.609375 30.4921875 C-8.71055792 26.44487056 -9.33603933 22.97715791 -12.01953125 19.84765625 C-18.23259566 14.55052271 -23.62223444 13.98936358 -30.609375 18.4921875 Z " fill="#2072AD" transform="translate(733.609375,77.5078125)"/>
<path d="M0 0 C7.59 0 15.18 0 23 0 C23.03738281 2.60132812 23.07476562 5.20265625 23.11328125 7.8828125 C23.15955255 10.41479686 23.21076572 12.94663667 23.26245117 15.47851562 C23.2956122 17.23200627 23.32367142 18.98560138 23.34643555 20.73925781 C23.3801447 23.26672698 23.43246692 25.79324638 23.48828125 28.3203125 C23.49467117 29.09867462 23.5010611 29.87703674 23.50764465 30.6789856 C23.63591051 35.47621354 24.3680758 38.83651776 27 43 C29.84083641 44.42041821 31.85477278 44.31452272 35 44 C37.84780619 41.76793569 38.84997666 40.45007001 40 37 C40.1539263 34.19839498 40.25738045 31.41701575 40.31640625 28.61328125 C40.33718735 27.79627243 40.35796844 26.97926361 40.37937927 26.13749695 C40.44473079 23.52924966 40.50369273 20.92090225 40.5625 18.3125 C40.60569892 16.54360946 40.64931365 14.77472903 40.69335938 13.00585938 C40.80117956 8.67067403 40.90035972 4.33541198 41 0 C48.92 0 56.84 0 65 0 C65 21.45 65 42.9 65 65 C57.08 65 49.16 65 41 65 C40.67 63.35 40.34 61.7 40 60 C39.39671875 60.42152344 38.7934375 60.84304687 38.171875 61.27734375 C36.97304688 62.09912109 36.97304688 62.09912109 35.75 62.9375 C34.96109375 63.48277344 34.1721875 64.02804688 33.359375 64.58984375 C27.92093207 67.84030385 21.77120884 67.62958411 15.66015625 66.609375 C9.32618717 64.92031658 5.58434177 61.42119281 2 56 C0.34071486 52.43834357 -0.24649914 49.66957666 -0.22705078 45.75073242 C-0.22689972 44.73005173 -0.22674866 43.70937103 -0.22659302 42.65776062 C-0.21627045 41.5680043 -0.20594788 40.47824799 -0.1953125 39.35546875 C-0.1924826 38.2305452 -0.18965271 37.10562164 -0.18673706 35.9466095 C-0.17555836 32.36013064 -0.15045763 28.77390315 -0.125 25.1875 C-0.11496723 22.75325882 -0.1058419 20.31901372 -0.09765625 17.88476562 C-0.07732975 11.92300275 -0.03817577 5.96178217 0 0 Z " fill="#2072AD" transform="translate(340,74)"/>
<path d="M0 0 C-1.57013777 5.96652354 -4.75029782 10.82909025 -8 16 C-8.9178125 15.6390625 -9.835625 15.278125 -10.78125 14.90625 C-20.11499625 11.3630845 -20.11499625 11.3630845 -30 11 C-30 11.66 -30 12.32 -30 13 C-29.34515625 13.23074219 -28.6903125 13.46148437 -28.015625 13.69921875 C-25.00142888 14.77632555 -21.99945264 15.88248548 -19 17 C-17.9584375 17.38542969 -16.916875 17.77085938 -15.84375 18.16796875 C-9.11348274 20.79379272 -2.91879752 23.53770277 1.15234375 29.76171875 C3.2903261 35.40717445 3.13766581 42.92548166 1.0546875 48.5546875 C-0.15389276 50.56898794 -1.42440568 52.26156492 -3 54 C-3.680625 54.763125 -4.36125 55.52625 -5.0625 56.3125 C-16.00938075 62.60113362 -27.73105252 61.69740451 -39.54296875 58.984375 C-44.97256019 57.43832184 -50.71474216 55.6345589 -54.5078125 51.26171875 C-55.17942432 48.17550254 -53.9802484 46.60087579 -52.33203125 44.02734375 C-51.73455078 43.14755859 -51.73455078 43.14755859 -51.125 42.25 C-50.73441406 41.64800781 -50.34382812 41.04601562 -49.94140625 40.42578125 C-48.97520812 38.94113535 -47.98942212 37.46927061 -47 36 C-43.33341669 37.17986736 -39.82715487 38.49313798 -36.3125 40.0625 C-30.93495096 42.26426665 -25.76921135 42.78063835 -20 43 C-20.95861609 40.53967834 -21.4696035 39.26616462 -23.87597656 38.05859375 C-24.62331055 37.85363281 -25.37064453 37.64867187 -26.140625 37.4375 C-26.96433594 37.19773438 -27.78804687 36.95796875 -28.63671875 36.7109375 C-29.49910156 36.47632813 -30.36148438 36.24171875 -31.25 36 C-40.24094325 33.50935819 -46.27148754 30.52890209 -52 23 C-54.56683017 17.86633965 -53.92761301 9.80451222 -52.1640625 4.47265625 C-48.85583191 -1.31119656 -43.96632388 -4.62040909 -37.75390625 -6.78125 C-25.63203706 -9.80674116 -9.86340847 -8.10373935 0 0 Z " fill="#2072AD" transform="translate(589,80)"/>
<path d="M0 0 C-1.57013777 5.96652354 -4.75029782 10.82909025 -8 16 C-8.9178125 15.6390625 -9.835625 15.278125 -10.78125 14.90625 C-20.11499625 11.3630845 -20.11499625 11.3630845 -30 11 C-30.33 11.66 -30.66 12.32 -31 13 C-30.34515625 13.23074219 -29.6903125 13.46148437 -29.015625 13.69921875 C-26.00142888 14.77632555 -22.99945264 15.88248548 -20 17 C-18.9584375 17.38542969 -17.916875 17.77085938 -16.84375 18.16796875 C-10.11348274 20.79379272 -3.91879752 23.53770277 0.15234375 29.76171875 C2.2903261 35.40717445 2.13766581 42.92548166 0.0546875 48.5546875 C-1.15389276 50.56898794 -2.42440568 52.26156492 -4 54 C-4.680625 54.763125 -5.36125 55.52625 -6.0625 56.3125 C-17.00938075 62.60113362 -28.73105252 61.69740451 -40.54296875 58.984375 C-45.97256019 57.43832184 -51.71474216 55.6345589 -55.5078125 51.26171875 C-56.17942432 48.17550254 -54.9802484 46.60087579 -53.33203125 44.02734375 C-52.73455078 43.14755859 -52.73455078 43.14755859 -52.125 42.25 C-51.73441406 41.64800781 -51.34382812 41.04601562 -50.94140625 40.42578125 C-49.97520812 38.94113535 -48.98942212 37.46927061 -48 36 C-44.33341669 37.17986736 -40.82715487 38.49313798 -37.3125 40.0625 C-31.93495096 42.26426665 -26.76921135 42.78063835 -21 43 C-21 42.01 -21 41.02 -21 40 C-21.64324219 39.76925781 -22.28648437 39.53851563 -22.94921875 39.30078125 C-25.96988308 38.21058428 -28.9847994 37.10521588 -32 36 C-33.13824219 35.59136719 -34.27648437 35.18273437 -35.44921875 34.76171875 C-37.14498047 34.13716797 -37.14498047 34.13716797 -38.875 33.5 C-40.44894531 32.92765625 -40.44894531 32.92765625 -42.0546875 32.34375 C-47.71167468 29.76284338 -50.7613319 26.84062767 -53 21 C-53.87199696 14.7361552 -54.1844186 8.08553974 -51 2.4375 C-46.38814961 -3.59536872 -40.23366731 -6.59999785 -32.828125 -7.78125 C-21.66181919 -8.64494216 -8.92731083 -7.33464505 0 0 Z " fill="#2072AD" transform="translate(910,80)"/>
<path d="M0 0 C7.92 0 15.84 0 24 0 C24 5.28 24 10.56 24 16 C28.95 16 33.9 16 39 16 C39 22.27 39 28.54 39 35 C34.05 35 29.1 35 24 35 C24.1405882 38.60444204 24.2872382 42.20845948 24.4375 45.8125 C24.47681641 46.83666016 24.51613281 47.86082031 24.55664062 48.91601562 C24.59853516 49.89892578 24.64042969 50.88183594 24.68359375 51.89453125 C24.73858032 53.25348511 24.73858032 53.25348511 24.79467773 54.63989258 C24.9208205 57.15048782 24.9208205 57.15048782 26 60 C31.46297624 61.33243323 33.03362943 60.7046773 39 59 C39 65.93 39 72.86 39 80 C27.98675943 83.30397217 18.54948921 85.27474461 8 80 C3.50057346 77.20035682 1.53665812 73.98625181 0 69 C-0.24288024 66.2074866 -0.3537899 63.65830425 -0.29296875 60.87890625 C-0.28660149 59.76176491 -0.28660149 59.76176491 -0.28010559 58.62205505 C-0.26345724 56.26848527 -0.22583375 53.91580621 -0.1875 51.5625 C-0.17243515 49.95639267 -0.15874991 48.35027177 -0.14648438 46.74414062 C-0.11359952 42.82908953 -0.06191626 38.91469521 0 35 C-2.64 35 -5.28 35 -8 35 C-8 28.73 -8 22.46 -8 16 C-5.36 16 -2.72 16 0 16 C0 10.72 0 5.44 0 0 Z " fill="#2072AD" transform="translate(455,58)"/>
<path d="M0 0 C7.92 0 15.84 0 24 0 C24 5.28 24 10.56 24 16 C28.95 16 33.9 16 39 16 C39 22.27 39 28.54 39 35 C34.05 35 29.1 35 24 35 C24.1405882 38.60444204 24.2872382 42.20845948 24.4375 45.8125 C24.47681641 46.83666016 24.51613281 47.86082031 24.55664062 48.91601562 C24.59853516 49.89892578 24.64042969 50.88183594 24.68359375 51.89453125 C24.72025146 52.80050049 24.75690918 53.70646973 24.79467773 54.63989258 C24.9208205 57.15048782 24.9208205 57.15048782 26 60 C31.46297624 61.33243323 33.03362943 60.7046773 39 59 C39 65.6 39 72.2 39 79 C30.50822279 83.2458886 22.43358158 84.59019868 13.1875 81.75 C8.11203502 79.81648953 4.93232865 77.8092505 2.38549805 72.86694336 C0.76205669 68.90580802 0.6143075 65.1161854 0.70703125 60.87890625 C0.71339851 59.76176491 0.71339851 59.76176491 0.71989441 58.62205505 C0.73654276 56.26848527 0.77416625 53.91580621 0.8125 51.5625 C0.82756485 49.95639267 0.84125009 48.35027177 0.85351562 46.74414062 C0.88640048 42.82908953 0.93808374 38.91469521 1 35 C-1.64 35 -4.28 35 -7 35 C-7 28.73 -7 22.46 -7 16 C-4.69 16 -2.38 16 0 16 C0 10.72 0 5.44 0 0 Z " fill="#2072AD" transform="translate(811,58)"/>
<path d="M0 0 C7.92 0 15.84 0 24 0 C24 29.04 24 58.08 24 88 C16.08 88 8.16 88 0 88 C0 58.96 0 29.92 0 0 Z " fill="#2072AD" transform="translate(416,51)"/>
<path d="M0 0 C0 8.25 0 16.5 0 25 C-3.63 25.99 -7.26 26.98 -11 28 C-16.03917532 32.01077219 -17.91224848 35.52185347 -18.76806641 41.79785156 C-19.24545278 46.33050958 -19.38162465 50.88518869 -19.5625 55.4375 C-19.706875 58.923125 -19.85125 62.40875 -20 66 C-27.92 66 -35.84 66 -44 66 C-44 44.55 -44 23.1 -44 1 C-36.08 1 -28.16 1 -20 1 C-19.67 3.31 -19.34 5.62 -19 8 C-18.44570313 7.50628906 -17.89140625 7.01257813 -17.3203125 6.50390625 C-16.59585938 5.86324219 -15.87140625 5.22257812 -15.125 4.5625 C-14.40570312 3.92441406 -13.68640625 3.28632812 -12.9453125 2.62890625 C-8.32354987 -1.2411239 -7.60873257 0 0 0 Z " fill="#2072AD" transform="translate(801,73)"/>
<path d="M0 0 C7.92 0 15.84 0 24 0 C24 21.45 24 42.9 24 65 C16.08 65 8.16 65 0 65 C0 43.55 0 22.1 0 0 Z " fill="#2072AD" transform="translate(503,74)"/>
<path d="M0 0 C3.12578143 1.6720747 5.39281175 3.7856235 7 7 C7.51512617 11.09157355 7.94367269 15.23589546 5.953125 18.95703125 C3.55501226 21.85592636 1.60351712 23.79811835 -2.171875 24.2734375 C-9.98876369 24.58137554 -9.98876369 24.58137554 -13.5625 21.625 C-17.3057723 17.59378368 -17.39037018 14.90519941 -17.359375 9.55078125 C-16.78039966 5.44131496 -15.00085071 3.78650423 -12 1 C-8.27533151 -0.86233425 -4.05504687 -0.57130829 0 0 Z " fill="#2072AD" transform="translate(519,46)"/>
<path d="M0 0 C5.41947104 4.52216046 10.46149992 9.30918427 15.4375 14.3125 C16.16904297 15.04017578 16.90058594 15.76785156 17.65429688 16.51757812 C18.34458984 17.20916016 19.03488281 17.90074219 19.74609375 18.61328125 C20.37185303 19.24016846 20.9976123 19.86705566 21.64233398 20.51293945 C23 22 23 22 23 23 C2.20547945 22.20547945 2.20547945 22.20547945 -2 18 C-2.59932114 11.75590999 -1.54488111 6.02155285 0 0 Z " fill="#FACC1B" transform="translate(45,88)"/>
<path d="M0 0 C7.2274605 -0.24091535 13.90294338 0.65504172 21 2 C21 4 21 4 19.390625 5.76171875 C18.33101562 6.71498047 18.33101562 6.71498047 17.25 7.6875 C16.55390625 8.33074219 15.8578125 8.97398438 15.140625 9.63671875 C13 11 13 11 11.03125 10.98828125 C8.22011412 9.62055553 6.41978297 7.74069091 4.25 5.5 C3.45078125 4.6853125 2.6515625 3.870625 1.828125 3.03125 C0 1 0 1 0 0 Z " fill="#F7CA20" transform="translate(91,79)"/>
</svg>
